<?xml version="1.0" encoding="UTF-8" standalone="no"?>
<!DOCTYPE svg PUBLIC "-//W3C//DTD SVG 1.1//EN" "http://www.w3.org/Graphics/SVG/1.1/DTD/svg11.dtd">
<svg width="100%" height="100%" viewBox="0 0 800 800" version="1.1" xmlns="http://www.w3.org/2000/svg" xmlns:xlink="http://www.w3.org/1999/xlink" xml:space="preserve" xmlns:serif="http://www.serif.com/" style="fill-rule:evenodd;clip-rule:evenodd;stroke-linecap:round;">
    <g transform="matrix(3.77947,0,0,3.77947,0,0)">
        <path d="M102.42,57.283C92.135,57.287 82.479,62.336 76.609,70.782C73.893,69.995 71.079,69.595 68.25,69.595C52.809,69.602 39.762,81.518 38.357,96.895C26.468,100.527 18.29,111.576 18.288,124.007C18.295,125.782 18.468,127.551 18.805,129.293C18.355,130.989 18.11,132.777 18.11,134.628C18.11,145.573 26.518,154.385 36.962,154.385L174.712,154.385C185.156,154.385 193.564,145.573 193.564,134.628C193.564,123.924 185.521,115.266 175.397,114.89C171.207,106.271 162.428,100.777 152.844,100.776C150.621,100.781 148.409,101.082 146.266,101.671C146.27,101.575 146.274,101.479 146.277,101.382C146.277,92.518 141.001,84.457 132.878,80.91C129.319,67.051 116.729,57.284 102.421,57.283L102.42,57.283Z" style="fill:white;fill-rule:nonzero;stroke:white;stroke-width:4.58px;"/>
    </g>
</svg>
