<?xml version="1.0" encoding="utf-8"?>
<!-- Generator: Adobe Illustrator 28.0.0, SVG Export Plug-In . SVG Version: 6.00 Build 0)  -->
<svg version="1.1" id="Layer_1" xmlns="http://www.w3.org/2000/svg" xmlns:xlink="http://www.w3.org/1999/xlink" x="0px" y="0px"
	 viewBox="0 0 288 54.9" style="enable-background:new 0 0 288 54.9;" xml:space="preserve">
<style type="text/css">
	.st0{fill:#03041A;}
	.st1{fill:#003FDD;}
	.st2{fill:url(#SVGID_1_);}
	.st3{fill:#00E7FF;}
	.st4{fill:#FFFFFF;}
	.st5{opacity:0.3;fill:#FFFFFF;}
	.st6{fill:url(#SVGID_00000005960906464454475070000015286718805965530301_);}
	.st7{fill:url(#SVGID_00000128456428353268515520000010355166964433826182_);}
	.st8{fill:url(#SVGID_00000093884819174385327570000008274550882261379487_);}
	.st9{fill:url(#SVGID_00000063617555290824735050000015365855744801808812_);}
	.st10{fill:url(#SVGID_00000116208753690577736180000003464684238427806901_);}
</style>
<g>
	<g>
		<path class="st0" d="M150.1,32.3c-0.9-1-2.1-1.8-3.5-2.4c-1.3-0.5-2.8-1-4.3-1.3c-1.5-0.3-2.8-0.6-4.1-0.9c-1.2-0.3-2.2-0.7-3-1.2
			c-0.6-0.4-0.9-1-0.9-1.8c0-0.7,0-2.8,5.4-2.8c2,0,3.4,0.1,4.2,0.8c0.8,0.7,1.3,1.5,1.4,2.4l0.1,0.6h5.4l-0.1-0.8
			c-0.2-1.4-0.6-2.7-1.4-3.9c-0.8-1.2-2-2.2-3.5-3c-1.5-0.7-3.5-1.1-5.8-1.1v0h-5v5h-5.3c-0.4,0.9-0.6,2-0.6,3.2
			c0,1.8,0.5,3.2,1.4,4.2c0.9,1,2.1,1.8,3.5,2.3c1.3,0.5,2.8,0.9,4.3,1.2c1.5,0.3,2.8,0.6,4.1,1c1.2,0.3,2.2,0.7,3,1.3
			c0.6,0.5,0.9,1.1,0.9,1.9c0,0.7-0.2,1.2-0.5,1.6c-0.4,0.5-0.9,0.8-1.5,1c-0.6,0.3-1.3,0.4-2,0.5c-0.7,0.1-1.3,0.1-1.8,0.1
			c-1.5,0-2.8-0.2-3.7-0.7c-0.9-0.4-1.6-1-2-1.7c-0.4-0.7-0.7-1.5-0.8-2.2l-0.1-0.6h-5.5l0.1,0.8c0.1,1.6,0.6,3.2,1.6,4.6
			c0.9,1.4,2.3,2.5,4,3.4c1.7,0.8,3.9,1.3,6.3,1.3c3.3,0,6.1-0.7,8.1-2.1c2.1-1.5,3.2-3.6,3.2-6.4C151.5,34.8,151,33.4,150.1,32.3z"
			/>
		<rect x="222.3" y="8.1" class="st0" width="5.6" height="5.1"/>
		<path class="st0" d="M83.2,9H67.1v35.7h5.3V32.5h10.8c3.8,0,6.9-1.1,9.1-3.2c2.2-2.1,3.4-5,3.4-8.6s-1.1-6.5-3.4-8.6
			C90.1,10,87.1,9,83.2,9z M72.4,14.1H83c2.5,0,4.4,0.6,5.6,1.8c1.2,1.2,1.8,2.8,1.8,4.9c0,2.1-0.6,3.7-1.8,4.9
			c-1.2,1.2-3.1,1.8-5.6,1.8H72.4V14.1z"/>
		<path class="st0" d="M119,18.8c-2-1.3-4.5-1.9-7.2-1.9c-2.7,0-5.2,0.6-7.2,1.9c-2,1.3-3.6,3-4.7,5.1c-1.1,2.1-1.6,4.5-1.6,7.1
			c0,2.6,0.5,4.9,1.6,7.1c1.1,2.1,2.7,3.9,4.7,5.1c2,1.3,4.5,1.9,7.2,1.9c2.8,0,5.2-0.6,7.2-1.9c2-1.3,3.6-3,4.7-5.1
			c1.1-2.1,1.6-4.5,1.6-7.1c0-2.6-0.6-5-1.6-7.1C122.6,21.8,121,20.1,119,18.8z M111.8,40.1c-1.7,0-3.2-0.4-4.5-1.2
			c-1.2-0.8-2.2-1.9-2.8-3.3c-0.6-1.4-1-2.9-1-4.6c0-1.7,0.3-3.2,1-4.6c0.6-1.4,1.6-2.5,2.8-3.3c1.2-0.8,2.7-1.2,4.5-1.2
			c1.8,0,3.3,0.4,4.5,1.2c1.2,0.8,2.1,1.9,2.8,3.3c0.6,1.4,1,2.9,1,4.6c0,1.6-0.3,3.2-1,4.6c-0.6,1.4-1.6,2.5-2.8,3.3
			C115.1,39.7,113.6,40.1,111.8,40.1z"/>
		<polygon class="st0" points="164.2,8.1 158.9,8.1 158.9,16.9 153.6,16.9 153.6,21.9 158.9,21.9 158.9,44.7 164.2,44.7 164.2,21.9 
			169.5,21.9 169.5,16.9 164.2,16.9 		"/>
		<path class="st0" d="M200.7,33.4c-0.8,2-2.1,3.5-3.8,4.7c-1.7,1.2-4,1.7-6.6,1.7c-2.6,0-4.9-0.6-6.7-1.7c-1.8-1.1-3.2-2.7-4.2-4.7
			c-0.9-2-1.4-4.2-1.4-6.7c0-2.5,0.5-4.7,1.4-6.7c0.9-1.9,2.3-3.5,4.2-4.6c1.8-1.1,4.1-1.7,6.7-1.7c2.7,0,4.9,0.6,6.6,1.7
			c1.7,1.2,3,2.7,3.8,4.7l0.2,0.4h5.6l-0.3-1c-0.8-2.2-1.9-4.1-3.4-5.8c-1.5-1.7-3.4-3-5.5-3.9c-2.2-1-4.6-1.4-7.3-1.4
			c-3.5,0-6.7,0.8-9.2,2.5c-2.6,1.6-4.6,3.9-6,6.6c-1.4,2.7-2.1,5.8-2.1,9.2c0,3.3,0.7,6.4,2.1,9.2c1.4,2.8,3.4,5,6,6.6
			c2.6,1.6,5.7,2.5,9.2,2.5c2.7,0,5.1-0.5,7.3-1.4c2.2-1,4-2.3,5.5-4c1.5-1.7,2.7-3.6,3.4-5.8l0.3-1h-5.6L200.7,33.4z"/>
		<rect x="210.8" y="8.1" class="st0" width="5.3" height="36.6"/>
		<rect x="222.4" y="17.4" class="st0" width="5.3" height="27.3"/>
		<path class="st0" d="M254.9,18.8c-2-1.3-4.3-1.9-7-1.9c-2.3,0-4.2,0.4-5.9,1.3c-1,0.5-1.9,1.2-2.7,2v-2.9h-5.3v37.6h5.3V41.7
			c0.8,0.8,1.7,1.4,2.7,2c1.6,0.9,3.6,1.4,5.9,1.4c2.6,0,5-0.6,7-1.9c2-1.3,3.5-3,4.6-5.1c1.1-2.1,1.6-4.5,1.6-7.1
			c0-2.6-0.6-5-1.6-7.1C258.5,21.8,256.9,20.1,254.9,18.8z M255.9,31c0,1.6-0.3,3.2-1,4.6c-0.7,1.4-1.6,2.5-2.9,3.3
			c-1.2,0.8-2.8,1.2-4.5,1.2c-1.7,0-3.2-0.4-4.5-1.2c-1.2-0.8-2.2-1.9-2.8-3.3c-0.6-1.4-1-2.9-1-4.6c0-1.7,0.3-3.2,1-4.6
			c0.6-1.4,1.6-2.5,2.8-3.3c1.2-0.8,2.7-1.2,4.5-1.2c1.8,0,3.3,0.4,4.5,1.2c1.3,0.8,2.2,1.9,2.9,3.3C255.5,27.8,255.9,29.3,255.9,31
			z"/>
		<path class="st0" d="M286.6,32.3c-0.9-1-2.1-1.8-3.5-2.4c-1.3-0.5-2.8-1-4.3-1.3c-1.5-0.3-2.8-0.6-4.1-0.9c-1.2-0.3-2.2-0.7-3-1.2
			c-0.6-0.4-0.9-1-0.9-1.8c0-0.7,0-2.8,5.4-2.8c2,0,3.4,0.1,4.2,0.8c0.8,0.7,1.3,1.5,1.4,2.4l0.1,0.6h5.4l-0.1-0.8
			c-0.2-1.4-0.6-2.7-1.4-3.9c-0.8-1.2-2-2.2-3.5-3c-1.5-0.8-3.5-1.1-5.9-1.1c-3.5,0-6.2,0.7-8,2.1c-1.9,1.4-2.8,3.5-2.8,6
			c0,1.8,0.5,3.2,1.4,4.2c0.9,1,2.1,1.8,3.5,2.3c1.3,0.5,2.8,0.9,4.3,1.2c1.5,0.3,2.8,0.6,4.1,1c1.2,0.3,2.2,0.7,3,1.3
			c0.6,0.5,0.9,1.1,0.9,1.9c0,0.7-0.2,1.2-0.5,1.6c-0.4,0.5-0.9,0.8-1.5,1c-0.6,0.3-1.3,0.4-2,0.5c-0.7,0.1-1.3,0.1-1.8,0.1
			c-1.5,0-2.8-0.2-3.7-0.7c-0.9-0.4-1.6-1-2-1.7c-0.4-0.7-0.7-1.5-0.8-2.2l-0.1-0.6h-5.5l0.1,0.8c0.1,1.6,0.6,3.2,1.6,4.6
			c0.9,1.4,2.3,2.5,4,3.4c1.7,0.8,3.9,1.3,6.3,1.3h5v-4.7h5.5c0.6-1.1,0.9-2.3,0.9-3.8C288,34.8,287.5,33.4,286.6,32.3z"/>
	</g>
	<g>
		<polygon class="st3" points="45,0 17.9,0 17.9,8.9 17.9,26.8 35.7,26.8 35.7,17.9 26.8,17.9 26.8,8.9 44.7,8.9 44.7,26.8 
			53.6,26.8 53.6,8.7 		"/>
		<linearGradient id="SVGID_1_" gradientUnits="userSpaceOnUse" x1="4.3296" y1="40.3574" x2="40.2183" y2="4.4688">
			<stop  offset="0" style="stop-color:#00E7FF"/>
			<stop  offset="1" style="stop-color:#003FDD"/>
		</linearGradient>
		<path class="st2" d="M8.9,35.7h26.8v8.9H8.7L0,36V8.9h17.9v8.9H8.9V35.7z M26.7,8.9v8.9h9v17.9h8.9V8.9H26.7z"/>
	</g>
</g>
</svg>
