<?xml version="1.0" encoding="UTF-8"?>
<svg id="Layer_1" data-name="Layer 1" xmlns="http://www.w3.org/2000/svg" viewBox="0 0 747.95 213">
  <defs>
    <style>
      .cls-1 {
        fill: #fff;
      }
    </style>
  </defs>
  <path class="cls-1" d="M81.53,76.58c0,4.68-1.04,8.84-3.12,12.48-2.08,3.64-5.08,6.71-8.98,9.2-3.9,2.49-8.59,4.39-14.06,5.69s-11.53,1.95-18.2,1.95H4.84V1.87h37.33c5.62,0,10.64.63,15.07,1.88,4.42,1.25,8.15,2.97,11.17,5.16,3.02,2.19,5.33,4.75,6.95,7.67,1.61,2.92,2.42,6.1,2.42,9.54,0,6.47-1.8,11.79-5.39,15.96-3.59,4.17-8.82,7.3-15.7,9.39,3.54.62,6.82,1.61,9.84,2.96,3.02,1.35,5.65,3.07,7.89,5.15,2.24,2.08,3.98,4.52,5.23,7.33,1.25,2.81,1.87,6.03,1.87,9.67ZM37.33,43.42c4.48,0,8.12-1.03,10.93-3.09,2.81-2.06,4.22-4.99,4.22-8.79,0-3.38-1.23-5.99-3.67-7.84-2.45-1.85-5.86-2.77-10.23-2.77h-8.75v22.49h7.5ZM56.23,74.58c0-3.98-1.59-6.99-4.76-9.04-3.18-2.04-7.58-3.06-13.2-3.06h-8.43v24.36h9.06c6.25,0,10.7-1.2,13.35-3.61s3.98-5.29,3.98-8.65Z"/>
  <path class="cls-1" d="M160.4,34.83c0,6.98-1.95,13.07-5.86,18.27-3.9,5.21-9.35,9.16-16.32,11.87l34.2,40.92h-31.55l-28.58-36.08h-4.69v36.08h-25.61V1.87h33.11c6.46,0,12.44.68,17.96,2.03,5.52,1.35,10.31,3.38,14.37,6.09,4.06,2.71,7.24,6.12,9.53,10.23,2.29,4.11,3.44,8.98,3.44,14.6ZM135.72,35.3c0-4.69-1.82-8.15-5.47-10.39-3.65-2.24-8.75-3.36-15.31-3.36h-7.34v29.21h6.25c6.87,0,12.23-1.35,16.09-4.06,3.85-2.71,5.78-6.51,5.78-11.4Z"/>
  <path class="cls-1" d="M211.47,68.1v37.8h-25.61v-37.8L151.65,1.87h27.33l19.68,43.73L218.34,1.87h27.33l-34.2,66.22Z"/>
  <path class="cls-1" d="M287.84,0c5.41,0,10.86.52,16.32,1.55,5.47,1.03,10.18,2.53,14.13,4.5l-3.75,18.79c-3.12-1.25-6.69-2.32-10.7-3.2-4.01-.88-7.99-1.33-11.95-1.33-10.62,0-19,2.77-25.15,8.32-6.15,5.54-9.21,13.97-9.21,25.26s3.07,19.72,9.21,25.26c6.14,5.54,14.52,8.32,25.15,8.32,3.96,0,7.94-.44,11.95-1.33,4.01-.88,7.58-1.95,10.7-3.2l3.75,18.79c-3.96,1.96-8.67,3.46-14.13,4.5-5.47,1.03-10.91,1.55-16.32,1.55-9.16,0-17.23-1.35-24.21-4.06-6.98-2.71-12.81-6.45-17.49-11.25-4.69-4.79-8.23-10.46-10.62-17.02-2.4-6.56-3.59-13.74-3.59-21.55s1.2-14.99,3.59-21.55c2.39-6.56,5.94-12.23,10.62-17.02,4.69-4.79,10.52-8.54,17.49-11.25,6.97-2.71,15.04-4.06,24.21-4.06Z"/>
  <path class="cls-1" d="M319.86,1.87h64.82v20.3h-39.2v20.93h37.33v20.3h-37.33v22.18h39.67v20.3h-65.28V1.87Z"/>
  <path class="cls-1" d="M55.91,105.23c5.41,0,10.85.52,16.32,1.55,5.47,1.04,10.18,2.53,14.13,4.5l-3.75,18.79c-3.12-1.25-6.69-2.32-10.7-3.2-4.01-.88-7.99-1.33-11.95-1.33-10.62,0-19,2.77-25.15,8.32-6.15,5.54-9.21,13.97-9.21,25.26s3.07,19.72,9.21,25.26c6.14,5.54,14.52,8.32,25.15,8.32,3.96,0,7.94-.44,11.95-1.33,4.01-.88,7.57-1.95,10.7-3.2l3.75,18.79c-3.96,1.96-8.67,3.46-14.13,4.5-5.47,1.03-10.91,1.55-16.32,1.55-9.16,0-17.23-1.35-24.21-4.06-6.98-2.71-12.81-6.46-17.49-11.25-4.69-4.79-8.23-10.46-10.62-17.02-2.4-6.56-3.59-13.74-3.59-21.55s1.2-14.99,3.59-21.55c2.39-6.56,5.94-12.23,10.62-17.02,4.69-4.79,10.52-8.54,17.49-11.25,6.97-2.71,15.04-4.06,24.21-4.06Z"/>
  <path class="cls-1" d="M166.34,140.06c0,6.98-1.95,13.07-5.86,18.27-3.9,5.21-9.35,9.16-16.32,11.87l34.2,40.92h-31.55l-28.58-36.08h-4.69v36.08h-25.61v-104.02h33.11c6.46,0,12.44.68,17.96,2.03,5.52,1.35,10.31,3.38,14.37,6.09,4.06,2.71,7.24,6.12,9.53,10.23,2.29,4.11,3.44,8.98,3.44,14.6ZM141.66,140.53c0-4.69-1.82-8.15-5.47-10.39-3.65-2.24-8.75-3.36-15.31-3.36h-7.34v29.21h6.25c6.87,0,12.23-1.35,16.09-4.06,3.85-2.71,5.78-6.51,5.78-11.4Z"/>
  <path class="cls-1" d="M239.58,190.98h-39.83l-6.4,20.15h-26.4l38.73-104.02h28.11l38.73,104.02h-26.39l-6.56-20.15ZM206.32,170.67h26.71l-13.28-43.89-13.43,43.89Z"/>
  <path class="cls-1" d="M361.41,179.26l16.09-72.16h26.24l-28.74,104.02h-26.08l-21.08-78.09-21.08,78.09h-26.08l-28.74-104.02h26.24l16.09,72.16,19.37-72.16h28.43l19.37,72.16Z"/>
  <path class="cls-1" d="M401.08,211.12v-104.02h65.44v20.3h-39.83v23.58h37.95v20.3h-37.95v39.83h-25.61Z"/>
  <path class="cls-1" d="M568.66,159.11c0,7.39-1.2,14.34-3.59,20.85-2.4,6.51-5.86,12.21-10.39,17.1-4.53,4.9-10.07,8.77-16.63,11.64s-14.06,4.29-22.49,4.29-15.96-1.43-22.57-4.29c-6.61-2.86-12.18-6.74-16.71-11.64-4.53-4.89-7.97-10.59-10.31-17.1-2.34-6.51-3.51-13.46-3.51-20.85s1.17-14.34,3.51-20.85c2.34-6.51,5.78-12.21,10.31-17.1,4.53-4.89,10.1-8.77,16.71-11.64,6.61-2.86,14.13-4.29,22.57-4.29s15.93,1.43,22.49,4.29c6.56,2.87,12.1,6.74,16.63,11.64,4.53,4.9,7.99,10.6,10.39,17.1,2.39,6.51,3.59,13.46,3.59,20.85ZM515.56,192.69c4.48,0,8.43-.83,11.87-2.5,3.44-1.66,6.33-3.98,8.67-6.95s4.08-6.51,5.23-10.62c1.14-4.11,1.72-8.62,1.72-13.51s-.57-9.4-1.72-13.51c-1.15-4.11-2.89-7.65-5.23-10.62s-5.23-5.28-8.67-6.95c-3.44-1.66-7.39-2.5-11.87-2.5s-8.57.83-11.95,2.5c-3.38,1.67-6.25,3.98-8.59,6.95s-4.09,6.51-5.23,10.62c-1.15,4.12-1.72,8.62-1.72,13.51s.57,9.4,1.72,13.51c1.14,4.11,2.89,7.65,5.23,10.62s5.21,5.29,8.59,6.95c3.38,1.67,7.37,2.5,11.95,2.5Z"/>
  <path class="cls-1" d="M647.68,140.06c0,6.98-1.95,13.07-5.86,18.27-3.9,5.21-9.35,9.16-16.32,11.87l34.2,40.92h-31.55l-28.58-36.08h-4.69v36.08h-25.61v-104.02h33.11c6.46,0,12.44.68,17.96,2.03,5.52,1.35,10.31,3.38,14.37,6.09,4.06,2.71,7.24,6.12,9.53,10.23,2.29,4.11,3.44,8.98,3.44,14.6ZM623.01,140.53c0-4.69-1.82-8.15-5.47-10.39-3.65-2.24-8.75-3.36-15.31-3.36h-7.34v29.21h6.25c6.87,0,12.23-1.35,16.09-4.06,3.85-2.71,5.78-6.51,5.78-11.4Z"/>
  <path class="cls-1" d="M654.24,107.1h31.71c9.16,0,17.57,1.3,25.22,3.91,7.65,2.6,14.19,6.2,19.6,10.78,5.41,4.58,9.63,10.07,12.65,16.48,3.02,6.4,4.53,13.35,4.53,20.85s-1.51,14.45-4.53,20.85c-3.02,6.4-7.24,11.9-12.65,16.48-5.42,4.58-11.95,8.18-19.6,10.78-7.65,2.6-16.06,3.9-25.22,3.9h-31.71v-104.02ZM687.51,190.82c5.21,0,9.94-.73,14.21-2.19,4.27-1.46,7.94-3.54,11.01-6.25,3.07-2.71,5.44-6.01,7.11-9.92,1.66-3.9,2.5-8.36,2.5-13.35s-.83-9.45-2.5-13.35c-1.67-3.9-4.04-7.21-7.11-9.92-3.07-2.71-6.74-4.79-11.01-6.25-4.27-1.46-9.01-2.19-14.21-2.19h-7.65v63.41h7.65Z"/>
</svg>