<?xml version="1.0" encoding="UTF-8" standalone="no"?>
<!DOCTYPE svg PUBLIC "-//W3C//DTD SVG 1.1//EN" "http://www.w3.org/Graphics/SVG/1.1/DTD/svg11.dtd">
<svg width="100%" height="100%" viewBox="0 0 450 110" version="1.1" xmlns="http://www.w3.org/2000/svg" xmlns:xlink="http://www.w3.org/1999/xlink" xml:space="preserve" xmlns:serif="http://www.serif.com/" style="fill-rule:evenodd;clip-rule:evenodd;stroke-linejoin:round;stroke-miterlimit:2;">
    <g transform="matrix(2.83465,0,0,2.83465,38.9649,-298.446)">
        <g transform="matrix(4.84495,0,0,4.84495,52.8525,-404.816)">
            <path d="M1.2,113.172C1.113,113.216 0.932,113.259 0.703,113.259C0.173,113.259 -0.223,112.932 -0.223,112.328C-0.223,111.75 0.176,111.363 0.759,111.363C0.991,111.363 1.141,111.412 1.205,111.445L1.144,111.638C1.055,111.595 0.924,111.562 0.767,111.562C0.327,111.562 0.034,111.837 0.034,112.32C0.034,112.772 0.299,113.058 0.754,113.058C0.904,113.058 1.055,113.028 1.152,112.981L1.2,113.172Z" style="fill:white;fill-rule:nonzero;"/>
            <path d="M3.144,111.393L3.144,112.161L4.054,112.161L4.054,111.393L4.299,111.393L4.299,113.23L4.054,113.23L4.054,112.368L3.144,112.368L3.144,113.23L2.899,113.23L2.899,111.393L3.144,111.393Z" style="fill:white;fill-rule:nonzero;"/>
            <path d="M6.358,111.393L6.358,112.483C6.358,112.892 6.545,113.066 6.797,113.066C7.073,113.066 7.254,112.886 7.254,112.483L7.254,111.393L7.5,111.393L7.5,112.467C7.5,113.031 7.196,113.26 6.788,113.26C6.403,113.26 6.113,113.047 6.113,112.475L6.113,111.393L6.358,111.393Z" style="fill:white;fill-rule:nonzero;"/>
            <path d="M9.316,111.42C9.439,111.396 9.617,111.379 9.782,111.379C10.041,111.379 10.212,111.428 10.329,111.532C10.421,111.611 10.476,111.736 10.476,111.881C10.476,112.121 10.317,112.281 10.122,112.347L10.122,112.355C10.264,112.404 10.351,112.535 10.398,112.725C10.46,112.982 10.504,113.159 10.541,113.229L10.289,113.229C10.259,113.178 10.217,113.02 10.167,112.791C10.111,112.537 10.008,112.442 9.787,112.434L9.559,112.434L9.559,113.229L9.316,113.229L9.316,111.42ZM9.559,112.254L9.807,112.254C10.066,112.254 10.231,112.115 10.231,111.905C10.231,111.668 10.055,111.565 9.798,111.565C9.681,111.565 9.601,111.575 9.559,111.586L9.559,112.254Z" style="fill:white;fill-rule:nonzero;"/>
            <path d="M13.531,113.172C13.445,113.216 13.264,113.259 13.035,113.259C12.505,113.259 12.109,112.932 12.109,112.328C12.109,111.75 12.508,111.363 13.091,111.363C13.322,111.363 13.473,111.412 13.537,111.445L13.476,111.638C13.386,111.595 13.255,111.562 13.099,111.562C12.658,111.562 12.365,111.837 12.365,112.32C12.365,112.772 12.63,113.058 13.085,113.058C13.236,113.058 13.386,113.028 13.484,112.981L13.531,113.172Z" style="fill:white;fill-rule:nonzero;"/>
            <path d="M15.476,111.393L15.476,112.161L16.386,112.161L16.386,111.393L16.631,111.393L16.631,113.23L16.386,113.23L16.386,112.368L15.476,112.368L15.476,113.23L15.231,113.23L15.231,111.393L15.476,111.393Z" style="fill:white;fill-rule:nonzero;"/>
        </g>
        <path d="M20.7,111.712C27.986,119.652 27.308,131.853 19.201,138.95C11.084,146.055 -1.402,145.377 -8.688,137.439C-15.976,129.5 -15.311,117.301 -7.192,110.195C0.913,103.098 13.412,103.773 20.7,111.712M-7.915,128.015L-0.962,128.196L5.927,119.585L12.882,128.196L19.719,128.141L5.683,110.465L-7.915,128.015Z" style="fill:rgb(253,103,26);fill-rule:nonzero;"/>
        <g transform="matrix(4.84495,0,0,4.84495,52.8525,-404.816)">
            <path d="M-1.096,106.521L-3.367,106.521L-3.367,107.44L-1.282,107.44L-1.282,108.195L-3.367,108.195L-3.367,109.314L-0.991,109.314L-0.991,110.097L-4.242,110.097L-4.242,105.749L-1.096,105.749L-1.096,106.521Z" style="fill:white;fill-rule:nonzero;"/>
            <rect x="-0.64" y="105.755" width="0.83" height="4.342" style="fill:white;fill-rule:nonzero;"/>
            <path d="M2.766,106.944C2.987,107.045 3.17,107.203 3.314,107.42C3.444,107.611 3.528,107.833 3.566,108.085C3.589,108.233 3.598,108.445 3.594,108.723L1.285,108.723C1.298,109.046 1.408,109.272 1.617,109.403C1.744,109.483 1.897,109.524 2.075,109.524C2.265,109.524 2.418,109.475 2.537,109.376C2.601,109.323 2.658,109.249 2.708,109.155L3.549,109.155C3.527,109.345 3.425,109.539 3.242,109.736C2.958,110.048 2.561,110.205 2.05,110.205C1.628,110.205 1.256,110.073 0.933,109.809C0.611,109.545 0.45,109.116 0.45,108.521C0.45,107.964 0.595,107.536 0.886,107.239C1.178,106.942 1.556,106.793 2.02,106.793C2.296,106.793 2.545,106.844 2.766,106.944M1.528,107.672C1.411,107.792 1.338,107.955 1.307,108.161L2.737,108.161C2.721,107.942 2.648,107.776 2.515,107.662C2.383,107.548 2.219,107.492 2.023,107.492C1.811,107.492 1.645,107.552 1.528,107.672" style="fill:white;fill-rule:nonzero;"/>
            <path d="M5.678,106.878L6.569,106.878L5.422,110.097L4.547,110.097L3.409,106.878L4.341,106.878L5.002,109.253L5.678,106.878Z" style="fill:white;fill-rule:nonzero;"/>
            <path d="M8,108.141C8.155,108.122 8.265,108.097 8.332,108.068C8.451,108.017 8.511,107.937 8.511,107.829C8.511,107.697 8.465,107.606 8.373,107.555C8.282,107.505 8.147,107.48 7.97,107.48C7.771,107.48 7.63,107.529 7.547,107.628C7.488,107.701 7.449,107.799 7.429,107.923L6.627,107.923C6.645,107.642 6.723,107.41 6.862,107.23C7.082,106.946 7.461,106.805 7.997,106.805C8.346,106.805 8.657,106.875 8.928,107.014C9.199,107.154 9.335,107.417 9.335,107.805L9.335,109.282C9.335,109.384 9.336,109.508 9.34,109.654C9.346,109.763 9.363,109.837 9.39,109.876C9.418,109.915 9.459,109.947 9.514,109.972L9.514,110.097L8.609,110.097C8.584,110.032 8.566,109.971 8.556,109.914C8.547,109.857 8.539,109.792 8.533,109.719C8.418,109.845 8.285,109.953 8.135,110.042C7.955,110.147 7.752,110.199 7.526,110.199C7.236,110.199 6.998,110.116 6.809,109.95C6.621,109.783 6.527,109.548 6.527,109.242C6.527,108.847 6.678,108.561 6.982,108.383C7.148,108.287 7.393,108.218 7.715,108.177L8,108.141ZM8.508,108.533C8.454,108.567 8.401,108.594 8.347,108.614C8.293,108.635 8.218,108.654 8.124,108.672L7.934,108.707C7.757,108.739 7.63,108.777 7.552,108.822C7.422,108.899 7.356,109.018 7.356,109.179C7.356,109.322 7.396,109.426 7.476,109.49C7.556,109.554 7.653,109.586 7.768,109.586C7.949,109.586 8.117,109.533 8.27,109.427C8.422,109.321 8.502,109.127 8.508,108.846L8.508,108.533Z" style="fill:white;fill-rule:nonzero;"/>
            <path d="M9.433,107.503L9.433,106.913L9.876,106.913L9.89,106.384L10.7,106.01L10.7,106.913L11.216,106.913L11.216,107.503L10.7,107.503L10.7,109.21C10.7,109.343 10.717,109.425 10.749,109.458C10.782,109.49 10.883,109.507 11.052,109.507C11.078,109.507 11.105,109.506 11.133,109.504C11.161,109.502 11.189,109.499 11.216,109.496L11.216,110.126L10.822,110.143C10.429,110.156 10.16,110.087 10.016,109.935C9.923,109.839 9.876,109.69 9.876,109.488L9.876,107.503L9.433,107.503Z" style="fill:white;fill-rule:nonzero;"/>
            <path d="M12.293,106.504L11.452,106.504L11.452,105.726L12.293,105.726L12.293,106.504ZM11.452,106.879L12.293,106.879L12.293,110.097L11.452,110.097L11.452,106.879Z" style="fill:white;fill-rule:nonzero;"/>
            <path d="M15.452,109.703C15.185,110.037 14.777,110.205 14.232,110.205C13.686,110.205 13.279,110.037 13.011,109.703C12.743,109.369 12.609,108.966 12.609,108.495C12.609,108.032 12.743,107.63 13.011,107.291C13.279,106.952 13.686,106.782 14.232,106.782C14.777,106.782 15.185,106.952 15.452,107.291C15.72,107.63 15.854,108.032 15.854,108.495C15.854,108.966 15.72,109.369 15.452,109.703M14.79,109.244C14.92,109.069 14.986,108.82 14.986,108.498C14.986,108.175 14.92,107.927 14.79,107.752C14.66,107.579 14.473,107.491 14.23,107.491C13.987,107.491 13.8,107.579 13.669,107.752C13.538,107.927 13.472,108.175 13.472,108.498C13.472,108.82 13.538,109.069 13.669,109.244C13.8,109.419 13.987,109.506 14.23,109.506C14.473,109.506 14.66,109.419 14.79,109.244" style="fill:white;fill-rule:nonzero;"/>
            <path d="M18.708,107.066C18.916,107.24 19.02,107.529 19.02,107.931L19.02,110.097L18.168,110.097L18.168,108.14C18.168,107.971 18.146,107.841 18.102,107.751C18.021,107.585 17.867,107.503 17.64,107.503C17.361,107.503 17.17,107.624 17.066,107.866C17.012,107.994 16.985,108.157 16.985,108.355L16.985,110.097L16.156,110.097L16.156,106.89L16.957,106.89L16.957,107.356C17.064,107.191 17.164,107.072 17.259,106.999C17.429,106.87 17.645,106.805 17.906,106.805C18.233,106.805 18.5,106.892 18.708,107.066" style="fill:white;fill-rule:nonzero;"/>
        </g>
    </g>
</svg>
